<svg xmlns="http://www.w3.org/2000/svg" viewBox="0 0 120 120" fill="none">
  <defs>
    <linearGradient id="g" x1="60" y1="0" x2="60" y2="120" gradientUnits="userSpaceOnUse">
      <stop stop-color="#c678dd"/>
      <stop offset="1" stop-color="#a371f7"/>
    </linearGradient>
  </defs>
  <ellipse cx="60" cy="108" rx="36" ry="8" fill="#000" opacity="0.35"/>
  <path fill="url(#g)" d="M60 8c-18 0-32 14-32 32 0 8 3 15 8 21-4 6-6 13-6 21v18h60V82c0-8-2-15-6-21 5-6 8-13 8-21 0-18-14-32-32-32Z"/>
  <circle cx="44" cy="48" r="6" fill="#030712"/>
  <circle cx="76" cy="48" r="6" fill="#030712"/>
  <path fill="#030712" d="M48 64c4 8 20 8 24 0-6 10-18 10-24 0Z"/>
  <path stroke="#f0abff" stroke-width="2" stroke-linecap="round" d="M40 28c6-4 14-6 20-6s14 2 20 6"/>
</svg>
